<svg width="368" height="368" viewBox="0 0 368 368" fill="none" xmlns="http://www.w3.org/2000/svg">
<g filter="url(#filter0_d_109_6)">
<circle cx="184" cy="180" r="180" fill="#D9D9D9"/>
</g>
<g filter="url(#filter1_i_109_6)">
<circle cx="184" cy="180" r="90" fill="white"/>
</g>
<path d="M173.545 193.182V191.545C173.545 187.795 173.841 184.807 174.432 182.58C175.023 180.352 175.898 178.568 177.057 177.227C178.216 175.864 179.636 174.636 181.318 173.545C182.773 172.591 184.068 171.67 185.205 170.784C186.364 169.898 187.273 168.955 187.932 167.955C188.614 166.955 188.955 165.818 188.955 164.545C188.955 163.409 188.682 162.409 188.136 161.545C187.591 160.682 186.852 160.011 185.92 159.534C184.989 159.057 183.955 158.818 182.818 158.818C181.591 158.818 180.455 159.102 179.409 159.67C178.386 160.239 177.557 161.023 176.92 162.023C176.307 163.023 176 164.182 176 165.5H158.545C158.591 160.5 159.727 156.443 161.955 153.33C164.182 150.193 167.136 147.898 170.818 146.443C174.5 144.966 178.545 144.227 182.955 144.227C187.818 144.227 192.159 144.943 195.977 146.375C199.795 147.784 202.807 149.92 205.011 152.784C207.216 155.625 208.318 159.182 208.318 163.455C208.318 166.205 207.841 168.625 206.886 170.716C205.955 172.784 204.648 174.614 202.966 176.205C201.307 177.773 199.364 179.205 197.136 180.5C195.5 181.455 194.125 182.443 193.011 183.466C191.898 184.466 191.057 185.614 190.489 186.909C189.92 188.182 189.636 189.727 189.636 191.545V193.182H173.545ZM181.864 216.091C179.227 216.091 176.966 215.17 175.08 213.33C173.216 211.466 172.295 209.205 172.318 206.545C172.295 203.955 173.216 201.739 175.08 199.898C176.966 198.057 179.227 197.136 181.864 197.136C184.364 197.136 186.568 198.057 188.477 199.898C190.409 201.739 191.386 203.955 191.409 206.545C191.386 208.318 190.92 209.932 190.011 211.386C189.125 212.818 187.966 213.966 186.534 214.83C185.102 215.67 183.545 216.091 181.864 216.091Z" fill="black"/>
<defs>
<filter id="filter0_d_109_6" x="0" y="0" width="368" height="368" filterUnits="userSpaceOnUse" color-interpolation-filters="sRGB">
<feFlood flood-opacity="0" result="BackgroundImageFix"/>
<feColorMatrix in="SourceAlpha" type="matrix" values="0 0 0 0 0 0 0 0 0 0 0 0 0 0 0 0 0 0 127 0" result="hardAlpha"/>
<feOffset dy="4"/>
<feGaussianBlur stdDeviation="2"/>
<feComposite in2="hardAlpha" operator="out"/>
<feColorMatrix type="matrix" values="0 0 0 0 0 0 0 0 0 0 0 0 0 0 0 0 0 0 0.25 0"/>
<feBlend mode="normal" in2="BackgroundImageFix" result="effect1_dropShadow_109_6"/>
<feBlend mode="normal" in="SourceGraphic" in2="effect1_dropShadow_109_6" result="shape"/>
</filter>
<filter id="filter1_i_109_6" x="94" y="90" width="180" height="184" filterUnits="userSpaceOnUse" color-interpolation-filters="sRGB">
<feFlood flood-opacity="0" result="BackgroundImageFix"/>
<feBlend mode="normal" in="SourceGraphic" in2="BackgroundImageFix" result="shape"/>
<feColorMatrix in="SourceAlpha" type="matrix" values="0 0 0 0 0 0 0 0 0 0 0 0 0 0 0 0 0 0 127 0" result="hardAlpha"/>
<feOffset dy="4"/>
<feGaussianBlur stdDeviation="2"/>
<feComposite in2="hardAlpha" operator="arithmetic" k2="-1" k3="1"/>
<feColorMatrix type="matrix" values="0 0 0 0 0 0 0 0 0 0 0 0 0 0 0 0 0 0 0.25 0"/>
<feBlend mode="normal" in2="shape" result="effect1_innerShadow_109_6"/>
</filter>
</defs>
</svg>
