<svg width="368" height="368" viewBox="0 0 368 368" fill="none" xmlns="http://www.w3.org/2000/svg">
<g filter="url(#filter0_d_109_6)">
<circle cx="184" cy="180" r="180" fill="white"/>
</g>
<circle cx="184" cy="180" r="90" fill="white"/>
<path d="M157.295 214.182V209.92C157.295 200.155 158.065 192.372 159.604 186.572C161.143 180.772 163.421 176.125 166.44 172.634C169.458 169.082 173.157 165.886 177.537 163.045C181.325 160.56 184.698 158.163 187.658 155.854C190.676 153.546 193.044 151.09 194.76 148.486C196.536 145.882 197.423 142.922 197.423 139.608C197.423 136.649 196.713 134.045 195.293 131.795C193.872 129.546 191.949 127.8 189.522 126.558C187.095 125.315 184.402 124.693 181.443 124.693C178.247 124.693 175.288 125.433 172.565 126.913C169.902 128.392 167.742 130.434 166.085 133.038C164.487 135.643 163.688 138.661 163.688 142.094H118.233C118.351 129.073 121.311 118.508 127.111 110.4C132.911 102.232 140.605 96.2545 150.193 92.4666C159.781 88.6195 170.316 86.696 181.798 86.696C194.464 86.696 205.768 88.5604 215.712 92.2891C225.655 95.9586 233.497 101.522 239.238 108.979C244.979 116.378 247.849 125.64 247.849 136.767C247.849 143.929 246.607 150.232 244.121 155.677C241.694 161.063 238.291 165.827 233.911 169.97C229.591 174.054 224.53 177.783 218.73 181.156C214.469 183.642 210.888 186.217 207.988 188.88C205.088 191.484 202.898 194.473 201.418 197.847C199.939 201.161 199.199 205.186 199.199 209.92V214.182H157.295ZM178.957 273.841C172.092 273.841 166.203 271.444 161.29 266.65C156.437 261.797 154.04 255.908 154.099 248.983C154.04 242.236 156.437 236.465 161.29 231.671C166.203 226.877 172.092 224.48 178.957 224.48C185.468 224.48 191.209 226.877 196.18 231.671C201.211 236.465 203.756 242.236 203.815 248.983C203.756 253.599 202.543 257.802 200.175 261.589C197.867 265.318 194.849 268.307 191.12 270.556C187.391 272.746 183.337 273.841 178.957 273.841Z" fill="black"/>
<defs>
<filter id="filter0_d_109_6" x="0" y="0" width="368" height="368" filterUnits="userSpaceOnUse" color-interpolation-filters="sRGB">
<feFlood flood-opacity="0" result="BackgroundImageFix"/>
<feColorMatrix in="SourceAlpha" type="matrix" values="0 0 0 0 0 0 0 0 0 0 0 0 0 0 0 0 0 0 127 0" result="hardAlpha"/>
<feOffset dy="4"/>
<feGaussianBlur stdDeviation="2"/>
<feComposite in2="hardAlpha" operator="out"/>
<feColorMatrix type="matrix" values="0 0 0 0 0 0 0 0 0 0 0 0 0 0 0 0 0 0 0.25 0"/>
<feBlend mode="normal" in2="BackgroundImageFix" result="effect1_dropShadow_109_6"/>
<feBlend mode="normal" in="SourceGraphic" in2="effect1_dropShadow_109_6" result="shape"/>
</filter>
</defs>
</svg>
